{
  "accessors": [
    {
      "bufferView": 2,
      "componentType": 5126,
      "count": 9401,
      "max": [
        0.6181640625,
        4.427863597869873,
        17.35400390625
      ],
      "min": [
        -0.619140625,
        -3.750394344329834,
        -19.608455657958984
      ],
      "type": "VEC3"
    },
    {
      "bufferView": 2,
      "byteOffset": 112812,
      "componentType": 5126,
      "count": 9401,
      "max": [
        1.0,
        0.9998536705970764,
        0.9998354315757751
      ],
      "min": [
        -1.0,
        -0.999983012676239,
        -0.9999480247497559
      ],
      "type": "VEC3"
    },
    {
      "bufferView": 1,
      "componentType": 5126,
      "count": 9401,
      "max": [
        0.9986749887466431,
        0.9973686933517456
      ],
      "min": [
        0.0013249999610707164,
        0.0013210177421569824
      ],
      "type": "VEC2"
    },
    {
      "bufferView": 1,
      "byteOffset": 75208,
      "componentType": 5126,
      "count": 9401,
      "max": [
        0.0,
        1.0
      ],
      "min": [
        0.0,
        1.0
      ],
      "type": "VEC2"
    },
    {
      "bufferView": 1,
      "byteOffset": 150416,
      "componentType": 5126,
      "count": 9401,
      "max": [
        0.9986749887466431,
        0.9973686933517456
      ],
      "min": [
        0.0013249999610707164,
        0.0013210177421569824
      ],
      "type": "VEC2"
    },
    {
      "bufferView": 1,
      "byteOffset": 225624,
      "componentType": 5126,
      "count": 9401,
      "max": [
        0.9986749887466431,
        0.9973686933517456
      ],
      "min": [
        0.0013249999610707164,
        0.0013210177421569824
      ],
      "type": "VEC2"
    },
    {
      "bufferView": 0,
      "componentType": 5125,
      "count": 28008,
      "type": "SCALAR"
    }
  ],
  "asset": {
    "extras": {
      "author": "零宽不连字 (https://sketchfab.com/LkblZ)",
      "license": "SKETCHFAB Standard (https://sketchfab.com/licenses)",
      "source": "https://sketchfab.com/3d-models/apex-legends-heirlooms-sky-piercer-c35b9063fc114237b5587e8e6ac2b528",
      "title": "Apex Legends Heirlooms Sky Piercer"
    },
    "generator": "Sketchfab-17.3.0",
    "version": "2.0"
  },
  "bufferViews": [
    {
      "buffer": 0,
      "byteLength": 112032,
      "name": "floatBufferViews",
      "target": 34963
    },
    {
      "buffer": 0,
      "byteLength": 300832,
      "byteOffset": 112032,
      "byteStride": 8,
      "name": "floatBufferViews",
      "target": 34962
    },
    {
      "buffer": 0,
      "byteLength": 225624,
      "byteOffset": 412864,
      "byteStride": 12,
      "name": "floatBufferViews",
      "target": 34962
    }
  ],
  "buffers": [
    {
      "byteLength": 638488,
      "uri": "scene.bin"
    }
  ],
  "extensionsRequired": [
    "KHR_materials_pbrSpecularGlossiness"
  ],
  "extensionsUsed": [
    "KHR_materials_pbrSpecularGlossiness",
    "KHR_materials_emissive_strength"
  ],
  "images": [
    {
      "uri": "textures/heirloom_agnostic_v25_prorookie_diffuse.png"
    },
    {
      "uri": "textures/heirloom_agnostic_v25_prorookie_specularGlossiness.png"
    },
    {
      "uri": "textures/heirloom_agnostic_v25_prorookie_emissive.jpeg"
    }
  ],
  "materials": [
    {
      "doubleSided": true,
      "emissiveFactor": [
        1.0,
        1.0,
        1.0
      ],
      "emissiveTexture": {
        "index": 2
      },
      "extensions": {
        "KHR_materials_emissive_strength": {
          "emissiveStrength": 5.28048176871806
        },
        "KHR_materials_pbrSpecularGlossiness": {
          "diffuseFactor": [
            1.0,
            1.0,
            1.0,
            1.0
          ],
          "diffuseTexture": {
            "index": 0
          },
          "glossinessFactor": 1.0,
          "specularFactor": [
            1.0,
            1.0,
            1.0
          ],
          "specularGlossinessTexture": {
            "index": 1
          }
        }
      },
      "name": "heirloom_agnostic_v25_prorookie"
    }
  ],
  "meshes": [
    {
      "name": "body_0_heirloom_agnostic_v25_prorookie.001_heirloom_agnostic_v25_prorookie_0",
      "primitives": [
        {
          "attributes": {
            "NORMAL": 1,
            "POSITION": 0,
            "TEXCOORD_0": 2,
            "TEXCOORD_1": 3,
            "TEXCOORD_2": 4,
            "TEXCOORD_3": 5
          },
          "indices": 6,
          "material": 0,
          "mode": 4
        }
      ]
    }
  ],
  "nodes": [
    {
      "children": [
        1
      ],
      "matrix": [
        0.9875026941299438,
        0.15756995975971222,
        0.003178667975589668,
        0.0,
        -0.1276562660932541,
        0.811533808708191,
        -0.5701901316642759,
        0.0,
        -0.0924244374036789,
        0.5626584887504575,
        0.8215066194534303,
        0.0,
        0.0,
        0.0,
        0.0,
        1.0
      ],
      "name": "Sketchfab_model"
    },
    {
      "children": [
        2
      ],
      "matrix": [
        0.009999999776482582,
        0.0,
        0.0,
        0.0,
        0.0,
        0.0,
        0.009999999776482582,
        0.0,
        0.0,
        -0.009999999776482582,
        0.0,
        0.0,
        0.0,
        0.0,
        0.0,
        1.0
      ],
      "name": "7d80bfa1b3b04132a3bf23148aa3b57f.fbx"
    },
    {
      "children": [
        3
      ],
      "name": "RootNode"
    },
    {
      "children": [
        4
      ],
      "matrix": [
        100.0,
        0.0,
        0.0,
        0.0,
        0.0,
        -1.629206793918314e-05,
        -99.99999999999868,
        0.0,
        0.0,
        99.99999999999868,
        -1.629206793918314e-05,
        0.0,
        0.0,
        0.0,
        0.0,
        1.0
      ],
      "name": "body_0_heirloom_agnostic_v25_prorookie.001"
    },
    {
      "mesh": 0,
      "name": "body_0_heirloom_agnostic_v25_prorookie.001_heirloom_agnostic_v25_prorookie_0"
    }
  ],
  "samplers": [
    {
      "magFilter": 9729,
      "minFilter": 9987,
      "wrapS": 10497,
      "wrapT": 10497
    }
  ],
  "scene": 0,
  "scenes": [
    {
      "name": "Sketchfab_Scene",
      "nodes": [
        0
      ]
    }
  ],
  "textures": [
    {
      "sampler": 0,
      "source": 0
    },
    {
      "sampler": 0,
      "source": 1
    },
    {
      "sampler": 0,
      "source": 2
    }
  ]
}
