{
  "accessors": [
    {
      "bufferView": 2,
      "componentType": 5126,
      "count": 8326,
      "max": [
        0.494140625,
        13.26953125,
        -37.6240234375
      ],
      "min": [
        -0.494140625,
        5.8798828125,
        -68.287109375
      ],
      "type": "VEC3"
    },
    {
      "bufferView": 2,
      "byteOffset": 99912,
      "componentType": 5126,
      "count": 8326,
      "max": [
        1.0,
        1.0,
        1.0
      ],
      "min": [
        -1.0,
        -1.0,
        -1.0
      ],
      "type": "VEC3"
    },
    {
      "bufferView": 3,
      "componentType": 5126,
      "count": 8326,
      "max": [
        1.0,
        1.0,
        1.0,
        1.0
      ],
      "min": [
        -1.0,
        -1.0,
        -1.0,
        -1.0
      ],
      "type": "VEC4"
    },
    {
      "bufferView": 1,
      "componentType": 5126,
      "count": 8326,
      "max": [
        1.99397611618042,
        0.9941453337669373
      ],
      "min": [
        0.005854368209838867,
        0.0085410475730896
      ],
      "type": "VEC2"
    },
    {
      "bufferView": 1,
      "byteOffset": 66608,
      "componentType": 5126,
      "count": 8326,
      "max": [
        1.99397611618042,
        0.9941453337669373
      ],
      "min": [
        -0.02138158679008484,
        -0.9115293025970459
      ],
      "type": "VEC2"
    },
    {
      "bufferView": 1,
      "byteOffset": 133216,
      "componentType": 5126,
      "count": 8326,
      "max": [
        1.99397611618042,
        0.9941453337669373
      ],
      "min": [
        0.005854368209838867,
        0.0085410475730896
      ],
      "type": "VEC2"
    },
    {
      "bufferView": 1,
      "byteOffset": 199824,
      "componentType": 5126,
      "count": 8326,
      "max": [
        1.99397611618042,
        0.9941453337669373
      ],
      "min": [
        0.005854368209838867,
        0.0085410475730896
      ],
      "type": "VEC2"
    },
    {
      "bufferView": 1,
      "byteOffset": 266432,
      "componentType": 5126,
      "count": 8326,
      "max": [
        1.99397611618042,
        0.9941453337669373
      ],
      "min": [
        0.005854368209838867,
        0.0085410475730896
      ],
      "type": "VEC2"
    },
    {
      "bufferView": 1,
      "byteOffset": 333040,
      "componentType": 5126,
      "count": 8326,
      "max": [
        1.99397611618042,
        0.9941453337669373
      ],
      "min": [
        0.005854368209838867,
        0.0085410475730896
      ],
      "type": "VEC2"
    },
    {
      "bufferView": 0,
      "componentType": 5125,
      "count": 25875,
      "type": "SCALAR"
    }
  ],
  "asset": {
    "extras": {
      "author": "零宽不连字 (https://sketchfab.com/LkblZ)",
      "license": "SKETCHFAB Standard (https://sketchfab.com/licenses)",
      "source": "https://sketchfab.com/3d-models/apex-legends-heirlooms-serpents-sting-3accceb96784447a81ed250f92b7d36e",
      "title": "Apex Legends Heirlooms Serpent's Sting"
    },
    "generator": "Sketchfab-17.3.0",
    "version": "2.0"
  },
  "bufferViews": [
    {
      "buffer": 0,
      "byteLength": 103500,
      "name": "floatBufferViews",
      "target": 34963
    },
    {
      "buffer": 0,
      "byteLength": 399648,
      "byteOffset": 103500,
      "byteStride": 8,
      "name": "floatBufferViews",
      "target": 34962
    },
    {
      "buffer": 0,
      "byteLength": 199824,
      "byteOffset": 503148,
      "byteStride": 12,
      "name": "floatBufferViews",
      "target": 34962
    },
    {
      "buffer": 0,
      "byteLength": 133216,
      "byteOffset": 702972,
      "byteStride": 16,
      "name": "floatBufferViews",
      "target": 34962
    }
  ],
  "buffers": [
    {
      "byteLength": 836188,
      "uri": "scene.bin"
    }
  ],
  "extensionsUsed": [
    "KHR_materials_emissive_strength",
    "KHR_materials_specular"
  ],
  "images": [
    {
      "uri": "textures/heirloom_hooksword_v24_maniaworld_main_baseColor.png"
    },
    {
      "uri": "textures/heirloom_hooksword_v24_maniaworld_main_metallicRoughness.png"
    },
    {
      "uri": "textures/heirloom_hooksword_v24_maniaworld_main_emissive.jpeg"
    },
    {
      "uri": "textures/heirloom_hooksword_v24_maniaworld_main_normal.png"
    }
  ],
  "materials": [
    {
      "doubleSided": true,
      "emissiveFactor": [
        1.0,
        1.0,
        1.0
      ],
      "emissiveTexture": {
        "index": 2
      },
      "extensions": {
        "KHR_materials_emissive_strength": {
          "emissiveStrength": 10.0
        },
        "KHR_materials_specular": {
          "specularColorFactor": [
            1.0,
            1.0,
            1.0
          ],
          "specularFactor": 1.0
        }
      },
      "name": "heirloom_hooksword_v24_maniaworld_main",
      "normalTexture": {
        "index": 3
      },
      "pbrMetallicRoughness": {
        "baseColorTexture": {
          "index": 0
        },
        "metallicRoughnessTexture": {
          "index": 1
        }
      }
    }
  ],
  "meshes": [
    {
      "name": "Object_0",
      "primitives": [
        {
          "attributes": {
            "NORMAL": 1,
            "POSITION": 0,
            "TANGENT": 2,
            "TEXCOORD_0": 3,
            "TEXCOORD_1": 4,
            "TEXCOORD_2": 5,
            "TEXCOORD_3": 6,
            "TEXCOORD_4": 7,
            "TEXCOORD_5": 8
          },
          "indices": 9,
          "material": 0,
          "mode": 4
        }
      ]
    }
  ],
  "nodes": [
    {
      "children": [
        1
      ],
      "matrix": [
        0.9258169531822205,
        0.3779721260070801,
        -1.9935026292748365e-16,
        0.0,
        -2.6226260276339234e-16,
        1.1497381704057537e-16,
        -1.0,
        0.0,
        -0.3779721260070801,
        0.9258169531822205,
        2.0557265960224235e-16,
        0.0,
        0.0,
        0.0,
        0.0,
        1.0
      ],
      "name": "Sketchfab_model"
    },
    {
      "children": [
        2
      ],
      "name": "root"
    },
    {
      "children": [
        3
      ],
      "matrix": [
        1.0,
        0.0,
        0.0,
        0.0,
        0.0,
        2.220446049250313e-16,
        1.0,
        0.0,
        0.0,
        -1.0,
        2.220446049250313e-16,
        0.0,
        0.0,
        0.0,
        0.0,
        1.0
      ],
      "name": "GLTF_SceneRootNode"
    },
    {
      "children": [
        4
      ],
      "matrix": [
        1.0,
        0.0,
        0.0,
        0.0,
        0.0,
        1.0,
        0.0,
        0.0,
        0.0,
        0.0,
        1.0,
        0.0,
        0.0,
        -6.059832572937012,
        54.300846099853516,
        1.0
      ],
      "name": "Serpent's Sting_0"
    },
    {
      "mesh": 0,
      "name": "Object_4"
    }
  ],
  "samplers": [
    {
      "magFilter": 9729,
      "minFilter": 9987,
      "wrapS": 10497,
      "wrapT": 10497
    }
  ],
  "scene": 0,
  "scenes": [
    {
      "name": "Sketchfab_Scene",
      "nodes": [
        0
      ]
    }
  ],
  "textures": [
    {
      "sampler": 0,
      "source": 0
    },
    {
      "sampler": 0,
      "source": 1
    },
    {
      "sampler": 0,
      "source": 2
    },
    {
      "sampler": 0,
      "source": 3
    }
  ]
}
